<?xml version="1.0" encoding="UTF-8"?>
<svg xmlns="http://www.w3.org/2000/svg" xmlns:xlink="http://www.w3.org/1999/xlink" width="1024pt" height="1024pt" viewBox="0 0 1024 1024" version="1.1">
<g id="surface1">
<rect x="0" y="0" width="1024" height="1024" style="fill:rgb(69.803922%,13.333333%,20.392157%);fill-opacity:1;stroke:none;"/>
<path style="fill-rule:nonzero;fill:rgb(0%,0%,0%);fill-opacity:1;stroke-width:300;stroke-linecap:butt;stroke-linejoin:miter;stroke:rgb(100%,100%,100%);stroke-opacity:1;stroke-miterlimit:4;" d="M 0 449.994278 L 7410 449.994278 M 7410 1049.996567 L 0 1049.996567 M 0 1649.998856 L 7410 1649.998856 M 7410 2250.001144 L 0 2250.001144 M 0 2850.003433 L 7410 2850.003433 M 7410 3450.005722 L 0 3450.005722 " transform="matrix(0.138192,0,0,0.262564,0,0)"/>
<path style=" stroke:none;fill-rule:nonzero;fill:rgb(23.529412%,23.137255%,43.137255%);fill-opacity:1;" d="M 0 0 L 409.601562 0 L 409.601562 551.382812 L 0 551.382812 Z M 0 0 "/>
<path style=" stroke:none;fill-rule:nonzero;fill:rgb(100%,100%,100%);fill-opacity:1;" d="M 34.132812 23.628906 L 43.878906 80.628906 L 18.363281 45.402344 L 49.90625 45.402344 L 24.386719 80.628906 Z M 34.132812 23.628906 "/>
<path style=" stroke:none;fill-rule:nonzero;fill:rgb(100%,100%,100%);fill-opacity:1;" d="M 34.132812 133.90625 L 43.878906 190.90625 L 18.363281 155.679688 L 49.90625 155.679688 L 24.386719 190.90625 Z M 34.132812 133.90625 "/>
<path style=" stroke:none;fill-rule:nonzero;fill:rgb(100%,100%,100%);fill-opacity:1;" d="M 34.132812 244.183594 L 43.878906 301.183594 L 18.363281 265.957031 L 49.90625 265.957031 L 24.386719 301.183594 Z M 34.132812 244.183594 "/>
<path style=" stroke:none;fill-rule:nonzero;fill:rgb(100%,100%,100%);fill-opacity:1;" d="M 34.132812 354.460938 L 43.878906 411.460938 L 18.363281 376.234375 L 49.90625 376.234375 L 24.386719 411.460938 Z M 34.132812 354.460938 "/>
<path style=" stroke:none;fill-rule:nonzero;fill:rgb(100%,100%,100%);fill-opacity:1;" d="M 34.132812 464.738281 L 43.878906 521.738281 L 18.363281 486.507812 L 49.90625 486.507812 L 24.386719 521.738281 Z M 34.132812 464.738281 "/>
<path style=" stroke:none;fill-rule:nonzero;fill:rgb(100%,100%,100%);fill-opacity:1;" d="M 68.265625 78.769531 L 78.015625 135.765625 L 52.496094 100.539062 L 84.039062 100.539062 L 58.519531 135.765625 Z M 68.265625 78.769531 "/>
<path style=" stroke:none;fill-rule:nonzero;fill:rgb(100%,100%,100%);fill-opacity:1;" d="M 68.265625 189.046875 L 78.015625 246.042969 L 52.496094 210.816406 L 84.039062 210.816406 L 58.519531 246.042969 Z M 68.265625 189.046875 "/>
<path style=" stroke:none;fill-rule:nonzero;fill:rgb(100%,100%,100%);fill-opacity:1;" d="M 68.265625 299.324219 L 78.015625 356.320312 L 52.496094 321.09375 L 84.039062 321.09375 L 58.519531 356.320312 Z M 68.265625 299.324219 "/>
<path style=" stroke:none;fill-rule:nonzero;fill:rgb(100%,100%,100%);fill-opacity:1;" d="M 68.265625 409.601562 L 78.015625 466.597656 L 52.496094 431.371094 L 84.039062 431.371094 L 58.519531 466.597656 Z M 68.265625 409.601562 "/>
<path style=" stroke:none;fill-rule:nonzero;fill:rgb(100%,100%,100%);fill-opacity:1;" d="M 102.398438 23.628906 L 112.148438 80.628906 L 86.628906 45.402344 L 118.171875 45.402344 L 92.652344 80.628906 Z M 102.398438 23.628906 "/>
<path style=" stroke:none;fill-rule:nonzero;fill:rgb(100%,100%,100%);fill-opacity:1;" d="M 102.398438 133.90625 L 112.148438 190.90625 L 86.628906 155.679688 L 118.171875 155.679688 L 92.652344 190.90625 Z M 102.398438 133.90625 "/>
<path style=" stroke:none;fill-rule:nonzero;fill:rgb(100%,100%,100%);fill-opacity:1;" d="M 102.398438 244.183594 L 112.148438 301.183594 L 86.628906 265.957031 L 118.171875 265.957031 L 92.652344 301.183594 Z M 102.398438 244.183594 "/>
<path style=" stroke:none;fill-rule:nonzero;fill:rgb(100%,100%,100%);fill-opacity:1;" d="M 102.398438 354.460938 L 112.148438 411.460938 L 86.628906 376.234375 L 118.171875 376.234375 L 92.652344 411.460938 Z M 102.398438 354.460938 "/>
<path style=" stroke:none;fill-rule:nonzero;fill:rgb(100%,100%,100%);fill-opacity:1;" d="M 102.398438 464.738281 L 112.148438 521.738281 L 86.628906 486.507812 L 118.171875 486.507812 L 92.652344 521.738281 Z M 102.398438 464.738281 "/>
<path style=" stroke:none;fill-rule:nonzero;fill:rgb(100%,100%,100%);fill-opacity:1;" d="M 136.535156 78.769531 L 146.28125 135.765625 L 120.761719 100.539062 L 152.304688 100.539062 L 126.785156 135.765625 Z M 136.535156 78.769531 "/>
<path style=" stroke:none;fill-rule:nonzero;fill:rgb(100%,100%,100%);fill-opacity:1;" d="M 136.535156 189.046875 L 146.28125 246.042969 L 120.761719 210.816406 L 152.304688 210.816406 L 126.785156 246.042969 Z M 136.535156 189.046875 "/>
<path style=" stroke:none;fill-rule:nonzero;fill:rgb(100%,100%,100%);fill-opacity:1;" d="M 136.535156 299.324219 L 146.28125 356.320312 L 120.761719 321.09375 L 152.304688 321.09375 L 126.785156 356.320312 Z M 136.535156 299.324219 "/>
<path style=" stroke:none;fill-rule:nonzero;fill:rgb(100%,100%,100%);fill-opacity:1;" d="M 136.535156 409.601562 L 146.28125 466.597656 L 120.761719 431.371094 L 152.304688 431.371094 L 126.785156 466.597656 Z M 136.535156 409.601562 "/>
<path style=" stroke:none;fill-rule:nonzero;fill:rgb(100%,100%,100%);fill-opacity:1;" d="M 170.667969 23.628906 L 180.414062 80.628906 L 154.894531 45.402344 L 186.4375 45.402344 L 160.917969 80.628906 Z M 170.667969 23.628906 "/>
<path style=" stroke:none;fill-rule:nonzero;fill:rgb(100%,100%,100%);fill-opacity:1;" d="M 170.667969 133.90625 L 180.414062 190.90625 L 154.894531 155.679688 L 186.4375 155.679688 L 160.917969 190.90625 Z M 170.667969 133.90625 "/>
<path style=" stroke:none;fill-rule:nonzero;fill:rgb(100%,100%,100%);fill-opacity:1;" d="M 170.667969 244.183594 L 180.414062 301.183594 L 154.894531 265.957031 L 186.4375 265.957031 L 160.917969 301.183594 Z M 170.667969 244.183594 "/>
<path style=" stroke:none;fill-rule:nonzero;fill:rgb(100%,100%,100%);fill-opacity:1;" d="M 170.667969 354.460938 L 180.414062 411.460938 L 154.894531 376.234375 L 186.4375 376.234375 L 160.917969 411.460938 Z M 170.667969 354.460938 "/>
<path style=" stroke:none;fill-rule:nonzero;fill:rgb(100%,100%,100%);fill-opacity:1;" d="M 170.667969 464.738281 L 180.414062 521.738281 L 154.894531 486.507812 L 186.4375 486.507812 L 160.917969 521.738281 Z M 170.667969 464.738281 "/>
<path style=" stroke:none;fill-rule:nonzero;fill:rgb(100%,100%,100%);fill-opacity:1;" d="M 204.800781 78.769531 L 214.546875 135.765625 L 189.027344 100.539062 L 220.570312 100.539062 L 195.054688 135.765625 Z M 204.800781 78.769531 "/>
<path style=" stroke:none;fill-rule:nonzero;fill:rgb(100%,100%,100%);fill-opacity:1;" d="M 204.800781 189.046875 L 214.546875 246.042969 L 189.027344 210.816406 L 220.570312 210.816406 L 195.054688 246.042969 Z M 204.800781 189.046875 "/>
<path style=" stroke:none;fill-rule:nonzero;fill:rgb(100%,100%,100%);fill-opacity:1;" d="M 204.800781 299.324219 L 214.546875 356.320312 L 189.027344 321.09375 L 220.570312 321.09375 L 195.054688 356.320312 Z M 204.800781 299.324219 "/>
<path style=" stroke:none;fill-rule:nonzero;fill:rgb(100%,100%,100%);fill-opacity:1;" d="M 204.800781 409.601562 L 214.546875 466.597656 L 189.027344 431.371094 L 220.570312 431.371094 L 195.054688 466.597656 Z M 204.800781 409.601562 "/>
<path style=" stroke:none;fill-rule:nonzero;fill:rgb(100%,100%,100%);fill-opacity:1;" d="M 238.933594 23.628906 L 248.679688 80.628906 L 223.160156 45.402344 L 254.703125 45.402344 L 229.1875 80.628906 Z M 238.933594 23.628906 "/>
<path style=" stroke:none;fill-rule:nonzero;fill:rgb(100%,100%,100%);fill-opacity:1;" d="M 238.933594 133.90625 L 248.679688 190.90625 L 223.160156 155.679688 L 254.703125 155.679688 L 229.1875 190.90625 Z M 238.933594 133.90625 "/>
<path style=" stroke:none;fill-rule:nonzero;fill:rgb(100%,100%,100%);fill-opacity:1;" d="M 238.933594 244.183594 L 248.679688 301.183594 L 223.160156 265.957031 L 254.703125 265.957031 L 229.1875 301.183594 Z M 238.933594 244.183594 "/>
<path style=" stroke:none;fill-rule:nonzero;fill:rgb(100%,100%,100%);fill-opacity:1;" d="M 238.933594 354.460938 L 248.679688 411.460938 L 223.160156 376.234375 L 254.703125 376.234375 L 229.1875 411.460938 Z M 238.933594 354.460938 "/>
<path style=" stroke:none;fill-rule:nonzero;fill:rgb(100%,100%,100%);fill-opacity:1;" d="M 238.933594 464.738281 L 248.679688 521.738281 L 223.160156 486.507812 L 254.703125 486.507812 L 229.1875 521.738281 Z M 238.933594 464.738281 "/>
<path style=" stroke:none;fill-rule:nonzero;fill:rgb(100%,100%,100%);fill-opacity:1;" d="M 273.066406 78.769531 L 282.8125 135.765625 L 257.296875 100.539062 L 288.839844 100.539062 L 263.320312 135.765625 Z M 273.066406 78.769531 "/>
<path style=" stroke:none;fill-rule:nonzero;fill:rgb(100%,100%,100%);fill-opacity:1;" d="M 273.066406 189.046875 L 282.8125 246.042969 L 257.296875 210.816406 L 288.839844 210.816406 L 263.320312 246.042969 Z M 273.066406 189.046875 "/>
<path style=" stroke:none;fill-rule:nonzero;fill:rgb(100%,100%,100%);fill-opacity:1;" d="M 273.066406 299.324219 L 282.8125 356.320312 L 257.296875 321.09375 L 288.839844 321.09375 L 263.320312 356.320312 Z M 273.066406 299.324219 "/>
<path style=" stroke:none;fill-rule:nonzero;fill:rgb(100%,100%,100%);fill-opacity:1;" d="M 273.066406 409.601562 L 282.8125 466.597656 L 257.296875 431.371094 L 288.839844 431.371094 L 263.320312 466.597656 Z M 273.066406 409.601562 "/>
<path style=" stroke:none;fill-rule:nonzero;fill:rgb(100%,100%,100%);fill-opacity:1;" d="M 307.199219 23.628906 L 316.945312 80.628906 L 291.429688 45.402344 L 322.972656 45.402344 L 297.453125 80.628906 Z M 307.199219 23.628906 "/>
<path style=" stroke:none;fill-rule:nonzero;fill:rgb(100%,100%,100%);fill-opacity:1;" d="M 307.199219 133.90625 L 316.945312 190.90625 L 291.429688 155.679688 L 322.972656 155.679688 L 297.453125 190.90625 Z M 307.199219 133.90625 "/>
<path style=" stroke:none;fill-rule:nonzero;fill:rgb(100%,100%,100%);fill-opacity:1;" d="M 307.199219 244.183594 L 316.945312 301.183594 L 291.429688 265.957031 L 322.972656 265.957031 L 297.453125 301.183594 Z M 307.199219 244.183594 "/>
<path style=" stroke:none;fill-rule:nonzero;fill:rgb(100%,100%,100%);fill-opacity:1;" d="M 307.199219 354.460938 L 316.945312 411.460938 L 291.429688 376.234375 L 322.972656 376.234375 L 297.453125 411.460938 Z M 307.199219 354.460938 "/>
<path style=" stroke:none;fill-rule:nonzero;fill:rgb(100%,100%,100%);fill-opacity:1;" d="M 307.199219 464.738281 L 316.945312 521.738281 L 291.429688 486.507812 L 322.972656 486.507812 L 297.453125 521.738281 Z M 307.199219 464.738281 "/>
<path style=" stroke:none;fill-rule:nonzero;fill:rgb(100%,100%,100%);fill-opacity:1;" d="M 341.332031 78.769531 L 351.082031 135.765625 L 325.5625 100.539062 L 357.105469 100.539062 L 331.585938 135.765625 Z M 341.332031 78.769531 "/>
<path style=" stroke:none;fill-rule:nonzero;fill:rgb(100%,100%,100%);fill-opacity:1;" d="M 341.332031 189.046875 L 351.082031 246.042969 L 325.5625 210.816406 L 357.105469 210.816406 L 331.585938 246.042969 Z M 341.332031 189.046875 "/>
<path style=" stroke:none;fill-rule:nonzero;fill:rgb(100%,100%,100%);fill-opacity:1;" d="M 341.332031 299.324219 L 351.082031 356.320312 L 325.5625 321.09375 L 357.105469 321.09375 L 331.585938 356.320312 Z M 341.332031 299.324219 "/>
<path style=" stroke:none;fill-rule:nonzero;fill:rgb(100%,100%,100%);fill-opacity:1;" d="M 341.332031 409.601562 L 351.082031 466.597656 L 325.5625 431.371094 L 357.105469 431.371094 L 331.585938 466.597656 Z M 341.332031 409.601562 "/>
<path style=" stroke:none;fill-rule:nonzero;fill:rgb(100%,100%,100%);fill-opacity:1;" d="M 375.464844 23.628906 L 385.214844 80.628906 L 359.695312 45.402344 L 391.238281 45.402344 L 365.71875 80.628906 Z M 375.464844 23.628906 "/>
<path style=" stroke:none;fill-rule:nonzero;fill:rgb(100%,100%,100%);fill-opacity:1;" d="M 375.464844 133.90625 L 385.214844 190.90625 L 359.695312 155.679688 L 391.238281 155.679688 L 365.71875 190.90625 Z M 375.464844 133.90625 "/>
<path style=" stroke:none;fill-rule:nonzero;fill:rgb(100%,100%,100%);fill-opacity:1;" d="M 375.464844 244.183594 L 385.214844 301.183594 L 359.695312 265.957031 L 391.238281 265.957031 L 365.71875 301.183594 Z M 375.464844 244.183594 "/>
<path style=" stroke:none;fill-rule:nonzero;fill:rgb(100%,100%,100%);fill-opacity:1;" d="M 375.464844 354.460938 L 385.214844 411.460938 L 359.695312 376.234375 L 391.238281 376.234375 L 365.71875 411.460938 Z M 375.464844 354.460938 "/>
<path style=" stroke:none;fill-rule:nonzero;fill:rgb(100%,100%,100%);fill-opacity:1;" d="M 375.464844 464.738281 L 385.214844 521.738281 L 359.695312 486.507812 L 391.238281 486.507812 L 365.71875 521.738281 Z M 375.464844 464.738281 "/>
</g>
</svg>
